<?xml version="1.0" standalone="no"?>
<!DOCTYPE svg PUBLIC "-//W3C//DTD SVG 20010904//EN"
 "http://www.w3.org/TR/2001/REC-SVG-20010904/DTD/svg10.dtd">
<svg version="1.0" xmlns="http://www.w3.org/2000/svg"
 width="626.000000pt" height="626.000000pt" viewBox="0 0 626.000000 626.000000"
 preserveAspectRatio="xMidYMid meet">

<g transform="translate(0.000000,626.000000) scale(0.100000,-0.100000)"
fill="#000000" stroke="none">
<path d="M0 3130 l0 -3130 3130 0 3130 0 0 3130 0 3130 -3130 0 -3130 0 0
-3130z m4024 2613 c103 -58 143 -87 159 -113 l22 -35 5 -960 c4 -691 8 -967
16 -985 20 -45 97 -99 155 -110 29 -6 54 -9 55 -7 2 2 -1 30 -6 62 -13 78 7
118 78 161 135 82 346 67 448 -31 50 -47 52 -60 29 -185 l-14 -75 25 -22 c33
-30 45 -29 80 8 25 27 27 32 14 42 -25 19 -72 86 -68 97 1 5 18 -4 36 -21 17
-16 32 -25 32 -20 0 6 5 11 10 11 6 0 10 -7 10 -15 0 -9 6 -12 17 -8 13 5 15
2 10 -16 -5 -20 -3 -22 18 -17 34 9 42 -9 48 -106 5 -97 2 -105 -56 -115 -28
-4 -37 -1 -51 18 l-16 23 0 -26 c0 -14 -9 -55 -20 -90 -11 -34 -20 -77 -20
-95 0 -40 -52 -110 -105 -141 -97 -54 -248 -70 -383 -38 -35 8 -71 12 -80 9
-10 -4 -13 -2 -8 5 3 6 -7 18 -24 28 -16 10 -30 22 -30 27 0 4 -4 5 -10 2 -5
-3 -10 1 -10 9 0 9 -4 16 -10 16 -5 0 -10 7 -10 15 0 8 -4 15 -10 15 -5 0 -10
24 -10 53 0 34 -3 47 -9 38 -6 -9 -11 8 -16 54 -5 45 -13 72 -25 82 -11 9 -15
23 -12 36 3 14 1 18 -6 13 -8 -5 -12 4 -12 29 0 23 -4 34 -11 30 -7 -5 -10 18
-8 73 1 60 -2 85 -15 103 -16 23 -16 23 -16 -29 0 -29 5 -52 10 -52 7 0 7 -6
0 -19 -12 -24 -14 -921 -1 -921 5 0 39 -18 76 -41 112 -68 148 -89 188 -106
20 -10 37 -21 37 -25 0 -5 13 -8 30 -8 30 0 69 19 197 96 40 24 77 44 83 44 5
0 10 3 10 8 0 4 10 12 23 17 46 22 112 60 115 68 2 4 8 7 13 7 5 0 39 18 75
40 36 22 68 40 71 40 3 0 17 9 32 19 67 48 143 83 167 77 24 -6 24 -8 18 -79
-4 -39 -10 -76 -15 -82 -4 -5 -48 -32 -98 -60 -50 -27 -91 -53 -91 -57 0 -4
46 20 103 53 95 55 102 58 105 38 5 -27 2 -30 -104 -93 -93 -55 -101 -68 -79
-120 7 -15 5 -17 -13 -11 -13 4 -22 2 -22 -4 0 -21 -20 -10 -26 14 -3 14 -11
25 -17 25 -8 0 -93 -47 -252 -140 -128 -75 -286 -167 -317 -184 -54 -30 -72
-16 -76 58 -3 60 21 120 55 140 11 6 -19 28 -118 86 -74 43 -144 86 -156 95
l-23 16 0 -213 c0 -159 -4 -228 -16 -273 -8 -33 -17 -69 -20 -80 -4 -15 2 -25
21 -35 20 -11 25 -20 22 -38 -4 -19 3 -27 34 -42 28 -15 38 -27 41 -47 2 -20
13 -33 40 -48 29 -15 38 -26 38 -46 0 -19 9 -31 35 -45 26 -14 35 -25 35 -44
0 -19 10 -31 41 -48 33 -19 40 -28 37 -50 -3 -23 -31 -42 -218 -150 -118 -68
-223 -126 -233 -129 -22 -7 -87 42 -87 67 0 10 -15 28 -35 40 -24 15 -35 29
-35 45 0 16 -11 29 -34 43 -21 12 -35 30 -39 48 -4 20 -17 35 -41 48 -20 11
-36 26 -36 33 0 8 -6 13 -13 11 -7 -2 -160 -88 -341 -192 l-328 -190 24 -18
c12 -9 26 -18 31 -18 4 0 7 -12 7 -27 0 -22 8 -32 38 -48 28 -15 36 -26 34
-42 -2 -17 7 -29 37 -48 29 -17 41 -32 41 -48 0 -17 11 -30 41 -46 33 -19 40
-28 37 -48 -2 -21 -25 -38 -128 -98 -69 -39 -169 -97 -223 -128 -54 -31 -103
-57 -109 -57 -27 0 -78 43 -78 65 0 16 -11 29 -34 43 -21 13 -35 30 -39 49 -4
20 -16 34 -41 45 -25 13 -35 24 -38 45 -2 21 -13 33 -40 48 -21 11 -38 28 -38
37 0 13 -34 -3 -142 -65 -125 -71 -150 -82 -201 -85 -47 -4 -64 -1 -85 15 -15
10 -67 41 -116 69 -111 61 -151 98 -164 149 -7 25 -12 457 -15 1173 -2 623 -7
1135 -10 1138 -3 4 -48 -18 -99 -47 l-93 -54 -3 -378 c-2 -376 -2 -378 18
-367 27 14 55 -1 76 -42 13 -24 16 -64 17 -182 1 -149 0 -153 -29 -216 -17
-36 -59 -100 -94 -143 l-62 -78 20 -22 c42 -44 45 -72 22 -192 -11 -60 -38
-217 -59 -348 -36 -221 -48 -268 -58 -242 -9 24 -22 39 -29 32 -11 -11 18 -58
32 -53 7 3 16 -4 19 -15 5 -16 16 -19 63 -21 31 0 65 -1 75 0 15 2 16 -4 11
-41 -8 -50 -13 -56 -80 -95 l-52 -30 -43 26 c-27 16 -56 25 -74 23 -24 -2 -35
4 -53 28 -12 17 -22 35 -22 41 0 6 -29 10 -74 10 -95 0 -169 24 -216 70 l-37
35 -53 315 c-30 173 -54 338 -55 365 0 62 27 104 92 142 43 25 44 27 27 40
-11 8 -28 16 -39 18 -60 12 -72 15 -88 27 -12 9 -20 32 -23 73 -7 69 -45 176
-80 223 -14 17 -21 32 -17 32 4 0 1 4 -7 10 -59 37 130 -7 197 -47 26 -15 68
-49 94 -76 l47 -48 12 51 c16 66 7 107 -36 170 -43 63 -50 101 -30 159 9 24
16 68 16 97 0 30 4 54 8 54 4 0 27 -14 51 -32 l43 -32 -4 537 -4 537 156 91
c211 121 196 108 182 158 -8 26 -26 51 -51 72 -39 31 -91 112 -79 124 3 4 20
-1 36 -9 30 -15 31 -15 40 12 l9 27 12 -22 c6 -13 36 -41 66 -63 44 -32 57
-49 67 -85 l13 -44 115 66 115 66 0 286 1 286 26 68 c33 83 83 158 140 214 42
41 77 62 513 313 121 70 439 253 707 408 267 154 501 285 520 291 56 17 90 6
232 -76z m-1908 -99 c19 -13 28 -14 37 -5 21 21 69 11 150 -31 100 -52 117
-68 117 -112 0 -33 -4 -36 -122 -104 -68 -39 -192 -111 -277 -160 l-155 -89
-43 26 c-50 30 -69 72 -59 133 13 80 80 171 135 183 21 4 30 16 43 53 23 65
79 122 118 122 17 0 42 -7 56 -16z m2681 -15 c30 1 58 -8 100 -30 78 -43 83
-47 83 -79 0 -25 -16 -37 -201 -143 l-201 -116 -34 26 c-30 22 -34 31 -34 70
0 72 55 153 103 153 8 0 17 14 21 31 3 17 22 47 41 66 28 28 40 34 58 28 12
-4 41 -7 64 -6z m-88 -915 c18 -13 28 -14 47 -5 39 18 60 13 131 -25 36 -20
77 -43 91 -50 33 -17 42 -32 42 -74 l-1 -35 -260 -150 c-144 -82 -269 -154
-278 -158 -13 -6 -29 -1 -57 18 -51 35 -54 40 -54 110 0 48 6 70 30 112 32 55
76 93 109 93 15 0 23 10 30 38 15 54 46 99 83 122 40 24 57 25 87 4z m-3743
-400 c19 -13 28 -14 37 -5 23 23 73 11 167 -42 l95 -52 0 -44 0 -45 -274 -158
-274 -158 -46 33 c-33 24 -49 43 -55 68 -20 79 53 214 129 239 29 9 37 18 46
53 14 54 85 127 123 127 15 0 38 -7 52 -16z m4464 -1343 c0 -21 -6 -43 -12
-49 -12 -9 -233 -135 -631 -359 -93 -52 -175 -92 -183 -89 -21 8 -17 30 11 56
23 22 792 478 808 479 4 1 7 -16 7 -38z m-103 -1717 c120 -69 238 -138 263
-152 24 -14 39 -27 32 -30 -19 -6 -14 -20 9 -27 15 -5 19 -14 17 -37 -3 -28
-15 -37 -128 -103 -69 -39 -132 -72 -140 -73 -131 -14 -123 -10 -155 -65 -27
-46 -43 -58 -175 -133 -80 -46 -151 -84 -159 -84 -8 0 -105 52 -215 117 -111
64 -232 134 -269 155 -55 32 -68 44 -65 61 1 12 -1 28 -6 35 -5 8 -4 18 3 25
7 7 7 14 0 23 -7 9 7 24 54 58 102 73 188 108 273 114 72 4 74 5 100 43 72
104 219 196 316 198 17 1 106 -45 245 -125z m-3497 -549 c0 -7 -14 -18 -30
-24 -28 -9 -30 -9 -20 10 6 11 9 23 6 28 -3 4 6 6 19 3 14 -2 25 -10 25 -17z
m-190 -60 c13 -14 21 -25 18 -25 -2 0 -15 11 -28 25 -13 14 -21 25 -18 25 2 0
15 -11 28 -25z m150 8 c-1 -8 -70 -55 -70 -48 0 2 4 15 10 29 7 19 17 26 35
26 14 0 25 -3 25 -7z m-273 -39 c-3 -3 -12 -4 -19 -1 -8 3 -5 6 6 6 11 1 17
-2 13 -5z m3828 -55 c4 -6 5 -12 2 -15 -7 -7 -37 7 -37 17 0 13 27 11 35 -2z
m-130 -19 c3 -5 -3 -10 -14 -10 -11 0 -23 5 -26 10 -3 6 3 10 14 10 11 0 23
-4 26 -10z"/>
<path d="M3314 5094 c-18 -14 -18 -15 4 -4 12 6 22 13 22 15 0 8 -5 6 -26 -11z"/>
<path d="M3665 5004 c-22 -13 -57 -33 -78 -45 -34 -18 -56 -44 -46 -54 3 -2
43 18 89 45 82 48 136 64 128 38 -3 -7 -77 -55 -166 -107 l-162 -94 0 -113 c0
-104 -2 -114 -20 -124 -20 -11 -21 -9 -18 127 l3 137 58 34 c78 47 61 66 -19
22 -33 -18 -65 -37 -72 -43 -9 -7 -12 -68 -12 -254 1 -228 2 -245 21 -264 23
-23 24 -40 4 -115 -15 -59 -13 -74 10 -74 16 0 21 13 31 76 l9 49 5 -45 c3
-32 10 -46 22 -48 14 -3 17 7 20 60 3 62 3 63 46 86 37 21 42 28 42 58 0 40
-4 41 -50 12 -40 -24 -93 -39 -108 -29 -5 3 -11 31 -12 61 -4 79 -1 112 9 106
5 -4 11 -2 13 3 1 4 13 12 26 15 19 6 22 4 22 -19 0 -14 7 -40 16 -56 l15 -30
32 20 32 20 5 106 5 107 120 68 120 68 3 96 c2 75 -1 100 -12 111 -22 22 -85
17 -131 -11z"/>
<path d="M3115 4980 c-3 -6 1 -7 9 -4 18 7 21 14 7 14 -6 0 -13 -4 -16 -10z"/>
<path d="M3285 4478 c-17 -20 -25 -39 -21 -52 3 -11 1 -25 -4 -32 -6 -6 -7
-25 -4 -42 5 -27 9 -29 24 -19 43 26 72 114 54 161 -9 23 -19 20 -49 -16z"/>
<path d="M3600 4496 c0 -8 5 -18 11 -22 6 -3 9 -17 6 -30 -5 -26 7 -41 18 -24
11 18 -6 90 -21 90 -8 0 -14 -6 -14 -14z"/>
<path d="M2850 4451 c-47 -11 -113 -52 -102 -63 8 -8 24 -3 56 16 48 28 86 34
86 14 0 -7 -75 -56 -165 -108 l-165 -94 0 -94 c0 -83 2 -93 15 -82 12 10 15
10 15 -3 0 -8 -7 -20 -15 -27 -12 -10 -15 -38 -15 -130 0 -125 7 -180 22 -180
5 0 85 44 178 98 l170 97 0 266 c0 202 -3 269 -12 276 -20 16 -41 20 -68 14z
m-263 -693 c-3 -8 -6 -5 -6 6 -1 11 2 17 5 13 3 -3 4 -12 1 -19z"/>
<path d="M2664 4353 c-27 -14 -66 -37 -86 -50 -21 -13 -38 -21 -38 -18 0 3
-11 -5 -25 -17 -22 -19 -25 -29 -25 -94 0 -49 4 -74 13 -77 10 -4 10 -7 0 -18
-7 -7 -13 -30 -13 -52 0 -26 4 -37 13 -35 8 3 14 42 17 128 l5 124 98 57 c54
31 99 59 99 63 0 16 -10 14 -58 -11z"/>
<path d="M3136 4301 c-11 -16 27 -36 69 -36 43 0 80 20 69 37 -3 5 -13 3 -23
-6 -22 -20 -65 -21 -81 -1 -14 17 -26 19 -34 6z"/>
<path d="M2406 4084 c-28 -28 -17 -84 16 -84 17 0 19 5 14 25 -5 18 -2 25 8
25 24 0 30 22 11 37 -24 17 -30 16 -49 -3z"/>
<path d="M2983 4093 c-8 -2 -13 -22 -13 -44 0 -29 4 -39 16 -39 11 0 14 5 10
17 -5 11 1 23 15 34 32 24 11 48 -28 32z"/>
<path d="M2503 3963 c-9 -3 -13 -32 -14 -86 -1 -45 -4 -69 -6 -54 -4 25 -8 28
-28 23 -13 -3 -36 -1 -50 4 -26 10 -26 10 -18 -22 4 -18 7 -70 5 -115 -2 -48
1 -83 6 -83 13 0 19 17 27 74 4 25 12 46 17 46 6 0 7 -11 4 -25 -4 -14 -9 -45
-13 -70 -5 -36 -3 -45 10 -45 10 0 19 17 27 53 20 90 20 89 36 76 12 -10 14 6
14 110 0 66 -1 121 -2 120 -2 0 -9 -3 -15 -6z"/>
<path d="M3030 3870 c-8 -5 -27 -10 -42 -10 -38 0 -35 -13 12 -51 37 -30 39
-35 42 -91 3 -52 6 -61 30 -76 29 -17 50 -10 30 10 -7 7 -12 20 -12 31 0 17 1
17 30 1 31 -19 50 -14 32 8 -5 7 -16 41 -22 76 -11 52 -19 67 -45 88 -36 27
-35 27 -55 14z m57 -102 c-3 -7 -5 -2 -5 12 0 14 2 19 5 13 2 -7 2 -19 0 -25z"/>
<path d="M1835 3799 c-16 -10 -141 -83 -277 -161 l-248 -141 0 -564 0 -564 31
-45 c16 -24 45 -75 62 -112 29 -62 32 -74 29 -157 -1 -49 0 -102 4 -117 5 -27
6 -27 35 -13 47 25 62 65 54 149 -8 86 6 148 42 184 l26 26 -6 454 -5 453 51
33 c29 18 97 58 152 90 l100 57 2 102 c3 128 -7 347 -16 346 -3 0 -19 -9 -36
-20z m25 -363 c0 -2 -7 -7 -16 -10 -8 -3 -12 -2 -9 4 6 10 25 14 25 6z m-60
-31 c0 -2 -10 -9 -22 -15 -22 -11 -22 -10 -4 4 21 17 26 19 26 11z m-70 -40
c0 -2 -10 -9 -22 -15 -22 -11 -22 -10 -4 4 21 17 26 19 26 11z m-105 -65 c-3
-5 -12 -10 -18 -10 -7 0 -6 4 3 10 19 12 23 12 15 0z"/>
<path d="M3312 3778 c-14 -14 -16 -54 -2 -63 5 -3 23 8 40 24 30 28 31 30 11
40 -25 14 -34 14 -49 -1z"/>
<path d="M3878 3677 l-158 -91 7 -38 c3 -21 2 -38 -2 -38 -8 0 -86 41 -95 50
-15 15 -87 47 -97 43 -7 -3 -13 2 -13 9 0 8 -11 21 -25 28 -22 12 -27 10 -59
-17 l-34 -31 26 -12 c32 -14 235 -132 242 -140 3 -3 19 -12 36 -19 28 -11 36
-10 80 17 27 15 82 48 122 71 41 24 72 45 69 47 -2 2 -52 -23 -110 -56 -59
-33 -111 -60 -117 -60 -28 0 0 21 110 85 66 38 120 73 120 77 0 4 -12 14 -27
21 l-27 14 23 13 c13 6 25 9 28 7 2 -3 12 1 21 9 10 8 28 23 41 33 19 14 23
23 17 44 -3 15 -10 27 -14 26 -4 0 -78 -41 -164 -92z"/>
<path d="M3422 3668 c-24 -15 -30 -24 -22 -32 8 -8 19 -2 41 22 34 36 29 39
-19 10z"/>
<path d="M3250 3534 c0 -14 5 -34 10 -44 7 -13 7 -45 1 -92 -5 -41 -5 -77 0
-82 13 -15 19 -4 31 62 6 34 16 59 21 55 5 -3 6 -18 3 -34 -8 -44 4 -119 20
-119 11 0 14 26 14 125 0 123 0 125 -22 125 -13 0 -35 7 -50 14 -27 14 -28 14
-28 -10z"/>
<path d="M4045 3075 c0 -236 1 -332 2 -212 2 120 2 314 0 430 -1 117 -2 19 -2
-218z"/>
<path d="M4960 3385 c0 -28 5 -37 30 -50 32 -16 64 -20 56 -6 -3 5 5 12 19 15
18 5 25 13 25 32 0 24 -1 24 -22 10 -30 -22 -41 -20 -72 9 -15 14 -29 25 -32
25 -2 0 -4 -16 -4 -35z"/>
<path d="M2704 3335 c-4 -8 1 -32 9 -52 l14 -37 17 32 c9 18 24 32 34 32 14 1
13 4 -7 20 -28 24 -59 26 -67 5z"/>
<path d="M2787 3106 c-7 -8 -26 -11 -45 -8 -42 6 -41 -8 3 -57 39 -43 39 -42
24 -110 -8 -37 -16 -52 -32 -57 -12 -4 -39 -18 -59 -32 -31 -20 -36 -28 -28
-42 6 -10 7 -26 3 -36 -8 -23 -11 -24 195 96 166 96 181 107 182 133 0 39 -21
43 -68 13 l-41 -25 -16 49 c-16 49 -27 60 -79 80 -18 7 -29 6 -39 -4z m72 -97
c15 -44 14 -51 -14 -72 l-24 -17 5 54 c4 33 2 56 -5 61 -6 3 -11 11 -11 16 0
21 38 -12 49 -42z"/>
<path d="M3807 3033 c-15 -2 -25 -8 -23 -11 2 -4 -22 -23 -54 -41 -90 -52 -60
-57 35 -5 56 30 86 41 90 34 10 -16 6 -19 -142 -105 l-133 -77 0 -219 c0 -182
2 -219 14 -219 8 0 79 37 158 83 l143 83 3 77 c3 73 -2 87 -23 69 -6 -5 -27
-19 -47 -31 l-38 -23 0 91 0 90 55 33 55 33 0 67 c0 48 -4 68 -12 68 -7 0 -22
2 -33 4 -11 2 -32 1 -48 -1z"/>
<path d="M3620 2963 c0 -6 5 -15 10 -18 13 -8 13 -25 0 -25 -5 0 -32 -14 -60
-31 l-51 -31 3 -216 c2 -161 6 -216 16 -220 9 -3 12 44 12 215 l0 218 47 25
c26 14 51 24 55 23 4 -2 8 3 8 11 0 17 -39 66 -40 49z"/>
<path d="M3212 2778 c-17 -17 -15 -73 3 -88 8 -7 22 -9 31 -6 15 6 15 8 0 31
-12 18 -13 25 -4 25 7 0 19 4 27 9 12 8 12 12 2 25 -16 19 -42 21 -59 4z"/>
<path d="M2692 2617 c-7 -8 -11 -21 -10 -28 2 -10 -7 -13 -32 -11 -19 2 -45 0
-57 -3 -23 -5 -23 -5 -23 -229 0 -172 3 -226 13 -234 10 -9 17 -6 30 8 23 28
49 26 46 -2 -4 -32 16 -65 51 -83 39 -20 38 -20 42 22 3 33 9 40 63 73 l60 37
0 108 0 107 -134 77 c-73 42 -133 81 -133 87 2 21 32 13 98 -26 74 -43 84 -46
84 -29 0 7 7 17 15 23 13 10 8 16 -36 41 -29 17 -54 36 -57 43 -9 27 39 8 168
-66 l135 -77 5 -215 c3 -118 8 -210 12 -205 4 6 8 104 9 219 l2 207 -79 46
c-43 25 -105 61 -137 79 -70 41 -118 51 -135 31z"/>
<path d="M3195 2513 c6 -34 6 -59 1 -178 -1 -23 3 -29 17 -27 9 2 20 -4 23
-13 7 -17 59 -21 69 -5 3 6 -3 10 -15 10 -16 0 -20 5 -16 18 18 60 25 119 20
165 -6 51 -7 53 -34 49 -15 -2 -38 1 -50 8 -22 12 -22 11 -15 -27z m61 -99
c-3 -9 -9 -33 -12 -55 -4 -21 -11 -39 -16 -39 -5 0 -7 8 -4 18 3 9 8 34 12 55
3 20 11 37 16 37 6 0 7 -7 4 -16z"/>
<path d="M2830 2485 l-22 -24 51 -28 51 -28 0 -108 c0 -61 4 -106 9 -103 25
16 31 -134 6 -154 -8 -7 -15 -24 -15 -39 l0 -26 18 23 c13 17 20 20 29 11 28
-28 33 4 33 211 l0 208 -69 40 -69 40 -22 -23z"/>
<path d="M3914 2474 c-18 -14 -18 -15 4 -4 12 6 22 13 22 15 0 8 -5 6 -26 -11z"/>
<path d="M4825 2325 c-151 -87 -278 -153 -287 -151 -22 5 -24 -12 -3 -20 12
-5 538 288 570 317 29 27 -37 -7 -280 -146z"/>
<path d="M2514 2187 c-22 -23 -33 -67 -37 -152 -2 -47 -4 -50 -30 -53 -16 -2
-40 4 -54 13 -27 18 -39 14 -30 -9 15 -39 144 -25 132 14 -3 11 4 29 18 46 45
54 58 103 41 148 -8 21 -15 20 -40 -7z"/>
<path d="M4068 2145 c-7 -7 14 -55 24 -55 4 0 5 -7 2 -15 -7 -18 17 -20 34 -3
28 28 7 78 -33 78 -12 0 -24 -2 -27 -5z"/>
<path d="M2846 1993 c-28 -15 -29 -16 -11 -29 10 -8 23 -14 27 -14 11 0 21 25
16 44 -3 13 -7 12 -32 -1z"/>
<path d="M2655 1924 c-10 -8 -31 -14 -47 -14 -15 0 -28 -4 -28 -8 0 -11 39
-47 68 -61 20 -11 22 -18 20 -76 -3 -54 0 -66 17 -79 37 -28 75 -15 40 14 -16
13 -21 40 -7 40 5 0 17 -7 28 -15 22 -17 54 -20 54 -5 0 6 -6 13 -14 16 -8 3
-16 29 -20 66 -6 63 -18 84 -66 118 -22 16 -28 16 -45 4z"/>
<path d="M4133 1859 c-6 -6 -29 -10 -51 -7 l-40 3 -7 -90 c-6 -101 4 -216 21
-222 13 -4 23 50 25 132 0 67 8 58 30 -39 18 -79 39 -86 39 -14 0 29 -5 70
-11 91 -7 25 -7 49 -1 70 25 81 23 104 -5 76z"/>
<path d="M1058 1633 c-44 -48 -44 -66 2 -105 125 -107 419 -97 509 18 19 24
20 30 8 48 -7 12 -17 27 -21 34 -6 10 -19 2 -50 -30 -59 -62 -107 -83 -186
-83 -42 1 -77 7 -97 18 -47 25 -103 77 -114 104 -11 30 -20 29 -51 -4z"/>
<path d="M2280 1161 c0 -6 4 -13 10 -16 6 -3 7 1 4 9 -7 18 -14 21 -14 7z"/>
<path d="M1429 1049 c-12 -24 2 -69 21 -69 6 0 9 4 5 9 -3 5 9 20 26 34 36 28
32 47 -11 47 -20 0 -33 -7 -41 -21z"/>
<path d="M1451 938 c0 -13 4 -32 9 -43 7 -15 9 -10 9 23 1 23 -3 42 -9 42 -5
0 -10 -10 -9 -22z"/>
<path d="M1620 850 c-8 -5 -10 -10 -5 -10 6 0 17 5 25 10 8 5 11 10 5 10 -5 0
-17 -5 -25 -10z"/>
<path d="M1530 823 c0 -28 1 -28 40 -4 l31 19 -35 4 c-32 4 -36 1 -36 -19z"/>
<path d="M5267 1143 c-14 -4 -17 -11 -13 -26 3 -12 6 -28 6 -36 0 -8 6 -11 15
-7 10 4 15 -1 15 -14 0 -26 15 -25 34 2 21 30 20 44 -4 68 -21 21 -22 21 -53
13z"/>
</g>
</svg>
